  0
SECTION
  2
HEADER
  9
$ACADVER
  1
AC1014
  9
$HANDSEED
  5
FFFF
  9
$INSUNITS
 70
     4
  9
$MEASUREMENT
 70
     1
  0
ENDSEC
  0
SECTION
  2
TABLES
  0
TABLE
  2
VPORT
  5
8
330
0
100
AcDbSymbolTable
 70
     4
  0
VPORT
  5
2E
330
8
100
AcDbSymbolTableRecord
100
AcDbViewportTableRecord
  2
*ACTIVE
 70
     0
 10
0.0
 20
0.0
 11
1.0
 21
1.0
 12
210.0
 22
148.5
 13
0.0
 23
0.0
 14
10.0
 24
10.0
 15
10.0
 25
10.0
 16
0.0
 26
0.0
 36
1.0
 17
0.0
 27
0.0
 37
0.0
 40
341.0
 41
1.24
 42
50.0
 43
0.0
 44
0.0
 50
0.0
 51
0.0
 71
     0
 72
   100
 73
     1
 74
     3
 75
     0
 76
     0
 77
     0
 78
     0
  0
ENDTAB
  0
TABLE
  2
LTYPE
  5
5
330
0
100
AcDbSymbolTable
 70
     1
  0
LTYPE
  5
14
330
5
100
AcDbSymbolTableRecord
100
AcDbLinetypeTableRecord
  2
BYBLOCK
 70
     0
  3

 72
    65
 73
     0
 40
0.0
  0
LTYPE
  5
15
330
5
100
AcDbSymbolTableRecord
100
AcDbLinetypeTableRecord
  2
BYLAYER
 70
     0
  3

 72
    65
 73
     0
 40
0.0
  0
LTYPE
  5
16
330
5
100
AcDbSymbolTableRecord
100
AcDbLinetypeTableRecord
  2
CONTINUOUS
 70
     0
  3
Solid line
 72
    65
 73
     0
 40
0.0
  0
ENDTAB
  0
TABLE
  2
LAYER
  5
2
100
AcDbSymbolTable
 70
1
  0
LAYER
  5
50
100
AcDbSymbolTableRecord
100
AcDbLayerTableRecord
  2
0
 70
0
  6
CONTINUOUS
  0
ENDTAB
  0
TABLE
  2
STYLE
  5
3
330
0
100
AcDbSymbolTable
 70
     1
  0
STYLE
  5
11
330
3
100
AcDbSymbolTableRecord
100
AcDbTextStyleTableRecord
  2
STANDARD
 70
     0
 40
0.0
 41
1.0
 50
0.0
 71
     0
 42
2.5
  3
txt
  4

  0
ENDTAB
  0
TABLE
  2
VIEW
  5
6
330
0
100
AcDbSymbolTable
 70
     0
  0
ENDTAB
  0
TABLE
  2
UCS
  5
7
330
0
100
AcDbSymbolTable
 70
     0
  0
ENDTAB
  0
TABLE
  2
APPID
  5
9
330
0
100
AcDbSymbolTable
 70
     2
  0
APPID
  5
12
330
9
100
AcDbSymbolTableRecord
100
AcDbRegAppTableRecord
  2
ACAD
 70
     0
  0
ENDTAB
  0
TABLE
  2
DIMSTYLE
  5
A
330
0
100
AcDbSymbolTable
 70
     1
  0
DIMSTYLE
105
27
330
A
100
AcDbSymbolTableRecord
100
AcDbDimStyleTableRecord
  2
ISO-25
 70
     0
  3

  4

  5

  6

  7

 40
1.0
 41
2.5
 42
0.625
 43
3.75
 44
1.25
 45
0.0
 46
0.0
 47
0.0
 48
0.0
140
2.5
141
2.5
142
0.0
143
0.03937007874016
144
1.0
145
0.0
146
1.0
147
0.625
 71
     0
 72
     0
 73
     0
 74
     0
 75
     0
 76
     0
 77
     1
 78
     8
170
     0
171
     3
172
     1
173
     0
174
     0
175
     0
176
     0
177
     0
178
     0
270
     2
271
     2
272
     2
273
     2
274
     3
340
11
275
     0
280
     0
281
     0
282
     0
283
     0
284
     8
285
     0
286
     0
287
     3
288
     0
  0
ENDTAB
  0
TABLE
  2
BLOCK_RECORD
  5
1
330
0
100
AcDbSymbolTable
 70
     1
  0
BLOCK_RECORD
  5
1F
330
1
100
AcDbSymbolTableRecord
100
AcDbBlockTableRecord
  2
*MODEL_SPACE
  0
BLOCK_RECORD
  5
1B
330
1
100
AcDbSymbolTableRecord
100
AcDbBlockTableRecord
  2
*PAPER_SPACE
  0
ENDTAB
  0
ENDSEC
  0
SECTION
  2
BLOCKS
  0
BLOCK
  5
20
330
1F
100
AcDbEntity
  8
0
100
AcDbBlockBegin
  2
*MODEL_SPACE
 70
     0
 10
0.0
 20
0.0
 30
0.0
  3
*MODEL_SPACE
  1

  0
ENDBLK
  5
21
330
1F
100
AcDbEntity
  8
0
100
AcDbBlockEnd
  0
BLOCK
  5
1C
330
1B
100
AcDbEntity
 67
     1
  8
0
100
AcDbBlockBegin
  2
*PAPER_SPACE
  1

  0
ENDBLK
  5
1D
330
1B
100
AcDbEntity
 67
     1
  8
0
100
AcDbBlockEnd
  0
ENDSEC
  0
SECTION
  2
ENTITIES
  0
SPLINE
  5
100
100
AcDbEntity
  8
0
 62
3
100
AcDbSpline
 70
8
 71
3
 72
8
 73
4
 74
0
 40
0
 40
0
 40
0
 40
0
 40
1
 40
1
 40
1
 40
1
 10
72.337542
 20
55.266860
 30
0.0
 10
70.680761
 20
55.266816
 30
0.0
 10
69.337686
 20
53.923696
 30
0.0
 10
69.337642
 20
52.266860
 30
0.0
  0
SPLINE
  5
101
100
AcDbEntity
  8
0
 62
3
100
AcDbSpline
 70
8
 71
3
 72
8
 73
4
 74
0
 40
0
 40
0
 40
0
 40
0
 40
1
 40
1
 40
1
 40
1
 10
69.337642
 20
52.266860
 30
0.0
 10
69.337686
 20
50.610024
 30
0.0
 10
70.680761
 20
49.266904
 30
0.0
 10
72.337542
 20
49.266860
 30
0.0
  0
SPLINE
  5
102
100
AcDbEntity
  8
0
 62
3
100
AcDbSpline
 70
8
 71
3
 72
8
 73
4
 74
0
 40
0
 40
0
 40
0
 40
0
 40
1
 40
1
 40
1
 40
1
 10
72.337542
 20
49.266860
 30
0.0
 10
73.133193
 20
49.266828
 30
0.0
 10
73.896268
 20
49.582882
 30
0.0
 10
74.458897
 20
50.145492
 30
0.0
  0
SPLINE
  5
103
100
AcDbEntity
  8
0
 62
3
100
AcDbSpline
 70
8
 71
3
 72
8
 73
4
 74
0
 40
0
 40
0
 40
0
 40
0
 40
1
 40
1
 40
1
 40
1
 10
74.458897
 20
50.145492
 30
0.0
 10
75.021527
 20
50.708103
 30
0.0
 10
75.337621
 20
51.471182
 30
0.0
 10
75.337642
 20
52.266860
 30
0.0
  0
SPLINE
  5
104
100
AcDbEntity
  8
0
 62
3
100
AcDbSpline
 70
8
 71
3
 72
8
 73
4
 74
0
 40
0
 40
0
 40
0
 40
0
 40
1
 40
1
 40
1
 40
1
 10
75.337642
 20
52.266860
 30
0.0
 10
75.337621
 20
53.062538
 30
0.0
 10
75.021527
 20
53.825617
 30
0.0
 10
74.458897
 20
54.388228
 30
0.0
  0
SPLINE
  5
105
100
AcDbEntity
  8
0
 62
3
100
AcDbSpline
 70
8
 71
3
 72
8
 73
4
 74
0
 40
0
 40
0
 40
0
 40
0
 40
1
 40
1
 40
1
 40
1
 10
74.458897
 20
54.388228
 30
0.0
 10
73.896268
 20
54.950838
 30
0.0
 10
73.133193
 20
55.266892
 30
0.0
 10
72.337542
 20
55.266860
 30
0.0
  0
SPLINE
  5
106
100
AcDbEntity
  8
0
 62
3
100
AcDbSpline
 70
8
 71
3
 72
8
 73
4
 74
0
 40
0
 40
0
 40
0
 40
0
 40
1
 40
1
 40
1
 40
1
 10
118.291340
 20
82.060265
 30
0.0
 10
115.530052
 20
82.060173
 30
0.0
 10
113.291614
 20
79.821645
 30
0.0
 10
113.291540
 20
77.060265
 30
0.0
  0
SPLINE
  5
107
100
AcDbEntity
  8
0
 62
3
100
AcDbSpline
 70
8
 71
3
 72
8
 73
4
 74
0
 40
0
 40
0
 40
0
 40
0
 40
1
 40
1
 40
1
 40
1
 10
113.291540
 20
77.060265
 30
0.0
 10
113.291611
 20
74.298883
 30
0.0
 10
115.530050
 20
72.060352
 30
0.0
 10
118.291340
 20
72.060260
 30
0.0
  0
SPLINE
  5
108
100
AcDbEntity
  8
0
 62
3
100
AcDbSpline
 70
8
 71
3
 72
8
 73
4
 74
0
 40
0
 40
0
 40
0
 40
0
 40
1
 40
1
 40
1
 40
1
 10
118.291340
 20
72.060260
 30
0.0
 10
119.617432
 20
72.060198
 30
0.0
 10
120.889233
 20
72.586951
 30
0.0
 10
121.826956
 20
73.524637
 30
0.0
  0
SPLINE
  5
109
100
AcDbEntity
  8
0
 62
3
100
AcDbSpline
 70
8
 71
3
 72
8
 73
4
 74
0
 40
0
 40
0
 40
0
 40
0
 40
1
 40
1
 40
1
 40
1
 10
121.826956
 20
73.524637
 30
0.0
 10
122.764678
 20
74.462323
 30
0.0
 10
123.291506
 20
75.734129
 30
0.0
 10
123.291540
 20
77.060265
 30
0.0
  0
SPLINE
  5
10a
100
AcDbEntity
  8
0
 62
3
100
AcDbSpline
 70
8
 71
3
 72
8
 73
4
 74
0
 40
0
 40
0
 40
0
 40
0
 40
1
 40
1
 40
1
 40
1
 10
123.291540
 20
77.060265
 30
0.0
 10
123.291505
 20
78.386400
 30
0.0
 10
122.764676
 20
79.658205
 30
0.0
 10
121.826954
 20
80.595889
 30
0.0
  0
SPLINE
  5
10b
100
AcDbEntity
  8
0
 62
3
100
AcDbSpline
 70
8
 71
3
 72
8
 73
4
 74
0
 40
0
 40
0
 40
0
 40
0
 40
1
 40
1
 40
1
 40
1
 10
121.826954
 20
80.595889
 30
0.0
 10
120.889232
 20
81.533574
 30
0.0
 10
119.617431
 20
82.060327
 30
0.0
 10
118.291340
 20
82.060265
 30
0.0
  0
LWPOLYLINE
  5
10c
100
AcDbEntity
  8
0
 62
3
100
AcDbPolyline
 90
1
 70
1
 10
72.337542
 20
55.266860
 30
0.0
  0
SPLINE
  5
10d
100
AcDbEntity
  8
0
 62
3
100
AcDbSpline
 70
8
 71
3
 72
8
 73
4
 74
0
 40
0
 40
0
 40
0
 40
0
 40
1
 40
1
 40
1
 40
1
 10
135.228740
 20
76.090735
 30
0.0
 10
133.571957
 20
76.090691
 30
0.0
 10
132.228881
 20
74.747568
 30
0.0
 10
132.228840
 20
73.090730
 30
0.0
  0
SPLINE
  5
10e
100
AcDbEntity
  8
0
 62
3
100
AcDbSpline
 70
8
 71
3
 72
8
 73
4
 74
0
 40
0
 40
0
 40
0
 40
0
 40
1
 40
1
 40
1
 40
1
 10
132.228840
 20
73.090730
 30
0.0
 10
132.228884
 20
71.433894
 30
0.0
 10
133.571959
 20
70.090774
 30
0.0
 10
135.228740
 20
70.090730
 30
0.0
  0
SPLINE
  5
10f
100
AcDbEntity
  8
0
 62
3
100
AcDbSpline
 70
8
 71
3
 72
8
 73
4
 74
0
 40
0
 40
0
 40
0
 40
0
 40
1
 40
1
 40
1
 40
1
 10
135.228740
 20
70.090730
 30
0.0
 10
136.024391
 20
70.090698
 30
0.0
 10
136.787466
 20
70.406752
 30
0.0
 10
137.350095
 20
70.969362
 30
0.0
  0
SPLINE
  5
110
100
AcDbEntity
  8
0
 62
3
100
AcDbSpline
 70
8
 71
3
 72
8
 73
4
 74
0
 40
0
 40
0
 40
0
 40
0
 40
1
 40
1
 40
1
 40
1
 10
137.350095
 20
70.969362
 30
0.0
 10
137.912725
 20
71.531973
 30
0.0
 10
138.228819
 20
72.295052
 30
0.0
 10
138.228840
 20
73.090730
 30
0.0
  0
SPLINE
  5
111
100
AcDbEntity
  8
0
 62
3
100
AcDbSpline
 70
8
 71
3
 72
8
 73
4
 74
0
 40
0
 40
0
 40
0
 40
0
 40
1
 40
1
 40
1
 40
1
 10
138.228840
 20
73.090730
 30
0.0
 10
138.228820
 20
73.886408
 30
0.0
 10
137.912726
 20
74.649489
 30
0.0
 10
137.350097
 20
75.212101
 30
0.0
  0
SPLINE
  5
112
100
AcDbEntity
  8
0
 62
3
100
AcDbSpline
 70
8
 71
3
 72
8
 73
4
 74
0
 40
0
 40
0
 40
0
 40
0
 40
1
 40
1
 40
1
 40
1
 10
137.350097
 20
75.212101
 30
0.0
 10
136.787468
 20
75.774712
 30
0.0
 10
136.024392
 20
76.090767
 30
0.0
 10
135.228740
 20
76.090735
 30
0.0
  0
LWPOLYLINE
  5
113
100
AcDbEntity
  8
0
 62
3
100
AcDbPolyline
 90
1
 70
1
 10
118.291340
 20
82.060265
 30
0.0
  0
SPLINE
  5
114
100
AcDbEntity
  8
0
 62
3
100
AcDbSpline
 70
8
 71
3
 72
8
 73
4
 74
0
 40
0
 40
0
 40
0
 40
0
 40
1
 40
1
 40
1
 40
1
 10
166.391640
 20
57.990110
 30
0.0
 10
164.734859
 20
57.990066
 30
0.0
 10
163.391784
 20
56.646946
 30
0.0
 10
163.391740
 20
54.990110
 30
0.0
  0
SPLINE
  5
115
100
AcDbEntity
  8
0
 62
3
100
AcDbSpline
 70
8
 71
3
 72
8
 73
4
 74
0
 40
0
 40
0
 40
0
 40
0
 40
1
 40
1
 40
1
 40
1
 10
163.391740
 20
54.990110
 30
0.0
 10
163.391784
 20
53.333274
 30
0.0
 10
164.734859
 20
51.990154
 30
0.0
 10
166.391640
 20
51.990110
 30
0.0
  0
SPLINE
  5
116
100
AcDbEntity
  8
0
 62
3
100
AcDbSpline
 70
8
 71
3
 72
8
 73
4
 74
0
 40
0
 40
0
 40
0
 40
0
 40
1
 40
1
 40
1
 40
1
 10
166.391640
 20
51.990110
 30
0.0
 10
167.187291
 20
51.990078
 30
0.0
 10
167.950366
 20
52.306132
 30
0.0
 10
168.512995
 20
52.868742
 30
0.0
  0
SPLINE
  5
117
100
AcDbEntity
  8
0
 62
3
100
AcDbSpline
 70
8
 71
3
 72
8
 73
4
 74
0
 40
0
 40
0
 40
0
 40
0
 40
1
 40
1
 40
1
 40
1
 10
168.512995
 20
52.868742
 30
0.0
 10
169.075625
 20
53.431353
 30
0.0
 10
169.391719
 20
54.194432
 30
0.0
 10
169.391740
 20
54.990110
 30
0.0
  0
SPLINE
  5
118
100
AcDbEntity
  8
0
 62
3
100
AcDbSpline
 70
8
 71
3
 72
8
 73
4
 74
0
 40
0
 40
0
 40
0
 40
0
 40
1
 40
1
 40
1
 40
1
 10
169.391740
 20
54.990110
 30
0.0
 10
169.391719
 20
55.785788
 30
0.0
 10
169.075625
 20
56.548867
 30
0.0
 10
168.512995
 20
57.111478
 30
0.0
  0
SPLINE
  5
119
100
AcDbEntity
  8
0
 62
3
100
AcDbSpline
 70
8
 71
3
 72
8
 73
4
 74
0
 40
0
 40
0
 40
0
 40
0
 40
1
 40
1
 40
1
 40
1
 10
168.512995
 20
57.111478
 30
0.0
 10
167.950366
 20
57.674088
 30
0.0
 10
167.187291
 20
57.990142
 30
0.0
 10
166.391640
 20
57.990110
 30
0.0
  0
LWPOLYLINE
  5
11a
100
AcDbEntity
  8
0
 62
3
100
AcDbPolyline
 90
1
 70
1
 10
135.228740
 20
76.090735
 30
0.0
  0
SPLINE
  5
11b
100
AcDbEntity
  8
0
 62
3
100
AcDbSpline
 70
8
 71
3
 72
8
 73
4
 74
0
 40
0
 40
0
 40
0
 40
0
 40
1
 40
1
 40
1
 40
1
 10
150.526240
 20
78.090735
 30
0.0
 10
147.764950
 20
78.090643
 30
0.0
 10
145.526511
 20
75.852112
 30
0.0
 10
145.526440
 20
73.090730
 30
0.0
  0
SPLINE
  5
11c
100
AcDbEntity
  8
0
 62
3
100
AcDbSpline
 70
8
 71
3
 72
8
 73
4
 74
0
 40
0
 40
0
 40
0
 40
0
 40
1
 40
1
 40
1
 40
1
 10
145.526440
 20
73.090730
 30
0.0
 10
145.526514
 20
70.329350
 30
0.0
 10
147.764952
 20
68.090822
 30
0.0
 10
150.526240
 20
68.090730
 30
0.0
  0
SPLINE
  5
11d
100
AcDbEntity
  8
0
 62
3
100
AcDbSpline
 70
8
 71
3
 72
8
 73
4
 74
0
 40
0
 40
0
 40
0
 40
0
 40
1
 40
1
 40
1
 40
1
 10
150.526240
 20
68.090730
 30
0.0
 10
151.852331
 20
68.090668
 30
0.0
 10
153.124132
 20
68.617421
 30
0.0
 10
154.061854
 20
69.555106
 30
0.0
  0
SPLINE
  5
11e
100
AcDbEntity
  8
0
 62
3
100
AcDbSpline
 70
8
 71
3
 72
8
 73
4
 74
0
 40
0
 40
0
 40
0
 40
0
 40
1
 40
1
 40
1
 40
1
 10
154.061854
 20
69.555106
 30
0.0
 10
154.999576
 20
70.492790
 30
0.0
 10
155.526405
 20
71.764595
 30
0.0
 10
155.526440
 20
73.090730
 30
0.0
  0
SPLINE
  5
11f
100
AcDbEntity
  8
0
 62
3
100
AcDbSpline
 70
8
 71
3
 72
8
 73
4
 74
0
 40
0
 40
0
 40
0
 40
0
 40
1
 40
1
 40
1
 40
1
 10
155.526440
 20
73.090730
 30
0.0
 10
155.526406
 20
74.416866
 30
0.0
 10
154.999578
 20
75.688672
 30
0.0
 10
154.061856
 20
76.626358
 30
0.0
  0
SPLINE
  5
120
100
AcDbEntity
  8
0
 62
3
100
AcDbSpline
 70
8
 71
3
 72
8
 73
4
 74
0
 40
0
 40
0
 40
0
 40
0
 40
1
 40
1
 40
1
 40
1
 10
154.061856
 20
76.626358
 30
0.0
 10
153.124133
 20
77.564044
 30
0.0
 10
151.852332
 20
78.090797
 30
0.0
 10
150.526240
 20
78.090735
 30
0.0
  0
LWPOLYLINE
  5
121
100
AcDbEntity
  8
0
 62
3
100
AcDbPolyline
 90
1
 70
1
 10
166.391640
 20
57.990110
 30
0.0
  0
SPLINE
  5
122
100
AcDbEntity
  8
0
 62
3
100
AcDbSpline
 70
8
 71
3
 72
8
 73
4
 74
0
 40
0
 40
0
 40
0
 40
0
 40
1
 40
1
 40
1
 40
1
 10
135.228740
 20
57.990110
 30
0.0
 10
133.571959
 20
57.990066
 30
0.0
 10
132.228884
 20
56.646946
 30
0.0
 10
132.228840
 20
54.990110
 30
0.0
  0
SPLINE
  5
123
100
AcDbEntity
  8
0
 62
3
100
AcDbSpline
 70
8
 71
3
 72
8
 73
4
 74
0
 40
0
 40
0
 40
0
 40
0
 40
1
 40
1
 40
1
 40
1
 10
132.228840
 20
54.990110
 30
0.0
 10
132.228884
 20
53.333274
 30
0.0
 10
133.571959
 20
51.990154
 30
0.0
 10
135.228740
 20
51.990110
 30
0.0
  0
SPLINE
  5
124
100
AcDbEntity
  8
0
 62
3
100
AcDbSpline
 70
8
 71
3
 72
8
 73
4
 74
0
 40
0
 40
0
 40
0
 40
0
 40
1
 40
1
 40
1
 40
1
 10
135.228740
 20
51.990110
 30
0.0
 10
136.024391
 20
51.990078
 30
0.0
 10
136.787466
 20
52.306132
 30
0.0
 10
137.350095
 20
52.868742
 30
0.0
  0
SPLINE
  5
125
100
AcDbEntity
  8
0
 62
3
100
AcDbSpline
 70
8
 71
3
 72
8
 73
4
 74
0
 40
0
 40
0
 40
0
 40
0
 40
1
 40
1
 40
1
 40
1
 10
137.350095
 20
52.868742
 30
0.0
 10
137.912725
 20
53.431353
 30
0.0
 10
138.228819
 20
54.194432
 30
0.0
 10
138.228840
 20
54.990110
 30
0.0
  0
SPLINE
  5
126
100
AcDbEntity
  8
0
 62
3
100
AcDbSpline
 70
8
 71
3
 72
8
 73
4
 74
0
 40
0
 40
0
 40
0
 40
0
 40
1
 40
1
 40
1
 40
1
 10
138.228840
 20
54.990110
 30
0.0
 10
138.228819
 20
55.785788
 30
0.0
 10
137.912725
 20
56.548867
 30
0.0
 10
137.350095
 20
57.111478
 30
0.0
  0
SPLINE
  5
127
100
AcDbEntity
  8
0
 62
3
100
AcDbSpline
 70
8
 71
3
 72
8
 73
4
 74
0
 40
0
 40
0
 40
0
 40
0
 40
1
 40
1
 40
1
 40
1
 10
137.350095
 20
57.111478
 30
0.0
 10
136.787466
 20
57.674088
 30
0.0
 10
136.024391
 20
57.990142
 30
0.0
 10
135.228740
 20
57.990110
 30
0.0
  0
LWPOLYLINE
  5
128
100
AcDbEntity
  8
0
 62
3
100
AcDbPolyline
 90
1
 70
1
 10
150.526240
 20
78.090735
 30
0.0
  0
SPLINE
  5
129
100
AcDbEntity
  8
0
 62
3
100
AcDbSpline
 70
8
 71
3
 72
8
 73
4
 74
0
 40
0
 40
0
 40
0
 40
0
 40
1
 40
1
 40
1
 40
1
 10
166.391640
 20
76.090735
 30
0.0
 10
164.734857
 20
76.090691
 30
0.0
 10
163.391781
 20
74.747568
 30
0.0
 10
163.391740
 20
73.090730
 30
0.0
  0
SPLINE
  5
12a
100
AcDbEntity
  8
0
 62
3
100
AcDbSpline
 70
8
 71
3
 72
8
 73
4
 74
0
 40
0
 40
0
 40
0
 40
0
 40
1
 40
1
 40
1
 40
1
 10
163.391740
 20
73.090730
 30
0.0
 10
163.391784
 20
71.433894
 30
0.0
 10
164.734859
 20
70.090774
 30
0.0
 10
166.391640
 20
70.090730
 30
0.0
  0
SPLINE
  5
12b
100
AcDbEntity
  8
0
 62
3
100
AcDbSpline
 70
8
 71
3
 72
8
 73
4
 74
0
 40
0
 40
0
 40
0
 40
0
 40
1
 40
1
 40
1
 40
1
 10
166.391640
 20
70.090730
 30
0.0
 10
167.187291
 20
70.090698
 30
0.0
 10
167.950366
 20
70.406752
 30
0.0
 10
168.512995
 20
70.969362
 30
0.0
  0
SPLINE
  5
12c
100
AcDbEntity
  8
0
 62
3
100
AcDbSpline
 70
8
 71
3
 72
8
 73
4
 74
0
 40
0
 40
0
 40
0
 40
0
 40
1
 40
1
 40
1
 40
1
 10
168.512995
 20
70.969362
 30
0.0
 10
169.075625
 20
71.531973
 30
0.0
 10
169.391719
 20
72.295052
 30
0.0
 10
169.391740
 20
73.090730
 30
0.0
  0
SPLINE
  5
12d
100
AcDbEntity
  8
0
 62
3
100
AcDbSpline
 70
8
 71
3
 72
8
 73
4
 74
0
 40
0
 40
0
 40
0
 40
0
 40
1
 40
1
 40
1
 40
1
 10
169.391740
 20
73.090730
 30
0.0
 10
169.391720
 20
73.886408
 30
0.0
 10
169.075626
 20
74.649489
 30
0.0
 10
168.512997
 20
75.212101
 30
0.0
  0
SPLINE
  5
12e
100
AcDbEntity
  8
0
 62
3
100
AcDbSpline
 70
8
 71
3
 72
8
 73
4
 74
0
 40
0
 40
0
 40
0
 40
0
 40
1
 40
1
 40
1
 40
1
 10
168.512997
 20
75.212101
 30
0.0
 10
167.950368
 20
75.774712
 30
0.0
 10
167.187292
 20
76.090767
 30
0.0
 10
166.391640
 20
76.090735
 30
0.0
  0
LWPOLYLINE
  5
12f
100
AcDbEntity
  8
0
 62
3
100
AcDbPolyline
 90
1
 70
1
 10
135.228740
 20
57.990110
 30
0.0
  0
SPLINE
  5
130
100
AcDbEntity
  8
0
 62
3
100
AcDbSpline
 70
8
 71
3
 72
8
 73
4
 74
0
 40
0
 40
0
 40
0
 40
0
 40
1
 40
1
 40
1
 40
1
 10
150.526240
 20
59.990110
 30
0.0
 10
147.764952
 20
59.990018
 30
0.0
 10
145.526514
 20
57.751490
 30
0.0
 10
145.526440
 20
54.990110
 30
0.0
  0
SPLINE
  5
131
100
AcDbEntity
  8
0
 62
3
100
AcDbSpline
 70
8
 71
3
 72
8
 73
4
 74
0
 40
0
 40
0
 40
0
 40
0
 40
1
 40
1
 40
1
 40
1
 10
145.526440
 20
54.990110
 30
0.0
 10
145.526514
 20
52.228730
 30
0.0
 10
147.764952
 20
49.990202
 30
0.0
 10
150.526240
 20
49.990110
 30
0.0
  0
SPLINE
  5
132
100
AcDbEntity
  8
0
 62
3
100
AcDbSpline
 70
8
 71
3
 72
8
 73
4
 74
0
 40
0
 40
0
 40
0
 40
0
 40
1
 40
1
 40
1
 40
1
 10
150.526240
 20
49.990110
 30
0.0
 10
151.852331
 20
49.990048
 30
0.0
 10
153.124132
 20
50.516801
 30
0.0
 10
154.061854
 20
51.454486
 30
0.0
  0
SPLINE
  5
133
100
AcDbEntity
  8
0
 62
3
100
AcDbSpline
 70
8
 71
3
 72
8
 73
4
 74
0
 40
0
 40
0
 40
0
 40
0
 40
1
 40
1
 40
1
 40
1
 10
154.061854
 20
51.454486
 30
0.0
 10
154.999576
 20
52.392170
 30
0.0
 10
155.526405
 20
53.663975
 30
0.0
 10
155.526440
 20
54.990110
 30
0.0
  0
SPLINE
  5
134
100
AcDbEntity
  8
0
 62
3
100
AcDbSpline
 70
8
 71
3
 72
8
 73
4
 74
0
 40
0
 40
0
 40
0
 40
0
 40
1
 40
1
 40
1
 40
1
 10
155.526440
 20
54.990110
 30
0.0
 10
155.526405
 20
56.316245
 30
0.0
 10
154.999576
 20
57.588050
 30
0.0
 10
154.061854
 20
58.525734
 30
0.0
  0
SPLINE
  5
135
100
AcDbEntity
  8
0
 62
3
100
AcDbSpline
 70
8
 71
3
 72
8
 73
4
 74
0
 40
0
 40
0
 40
0
 40
0
 40
1
 40
1
 40
1
 40
1
 10
154.061854
 20
58.525734
 30
0.0
 10
153.124132
 20
59.463419
 30
0.0
 10
151.852331
 20
59.990172
 30
0.0
 10
150.526240
 20
59.990110
 30
0.0
  0
LWPOLYLINE
  5
136
100
AcDbEntity
  8
0
 62
3
100
AcDbPolyline
 90
1
 70
1
 10
166.391640
 20
76.090735
 30
0.0
  0
SPLINE
  5
137
100
AcDbEntity
  8
0
 62
3
100
AcDbSpline
 70
8
 71
3
 72
8
 73
4
 74
0
 40
0
 40
0
 40
0
 40
0
 40
1
 40
1
 40
1
 40
1
 10
72.337542
 20
105.266865
 30
0.0
 10
70.680761
 20
105.266821
 30
0.0
 10
69.337686
 20
103.923701
 30
0.0
 10
69.337642
 20
102.266865
 30
0.0
  0
SPLINE
  5
138
100
AcDbEntity
  8
0
 62
3
100
AcDbSpline
 70
8
 71
3
 72
8
 73
4
 74
0
 40
0
 40
0
 40
0
 40
0
 40
1
 40
1
 40
1
 40
1
 10
69.337642
 20
102.266865
 30
0.0
 10
69.337686
 20
100.610029
 30
0.0
 10
70.680761
 20
99.266909
 30
0.0
 10
72.337542
 20
99.266865
 30
0.0
  0
SPLINE
  5
139
100
AcDbEntity
  8
0
 62
3
100
AcDbSpline
 70
8
 71
3
 72
8
 73
4
 74
0
 40
0
 40
0
 40
0
 40
0
 40
1
 40
1
 40
1
 40
1
 10
72.337542
 20
99.266865
 30
0.0
 10
73.133193
 20
99.266833
 30
0.0
 10
73.896268
 20
99.582887
 30
0.0
 10
74.458897
 20
100.145497
 30
0.0
  0
SPLINE
  5
13a
100
AcDbEntity
  8
0
 62
3
100
AcDbSpline
 70
8
 71
3
 72
8
 73
4
 74
0
 40
0
 40
0
 40
0
 40
0
 40
1
 40
1
 40
1
 40
1
 10
74.458897
 20
100.145497
 30
0.0
 10
75.021527
 20
100.708108
 30
0.0
 10
75.337621
 20
101.471187
 30
0.0
 10
75.337642
 20
102.266865
 30
0.0
  0
SPLINE
  5
13b
100
AcDbEntity
  8
0
 62
3
100
AcDbSpline
 70
8
 71
3
 72
8
 73
4
 74
0
 40
0
 40
0
 40
0
 40
0
 40
1
 40
1
 40
1
 40
1
 10
75.337642
 20
102.266865
 30
0.0
 10
75.337621
 20
103.062543
 30
0.0
 10
75.021527
 20
103.825622
 30
0.0
 10
74.458897
 20
104.388233
 30
0.0
  0
SPLINE
  5
13c
100
AcDbEntity
  8
0
 62
3
100
AcDbSpline
 70
8
 71
3
 72
8
 73
4
 74
0
 40
0
 40
0
 40
0
 40
0
 40
1
 40
1
 40
1
 40
1
 10
74.458897
 20
104.388233
 30
0.0
 10
73.896268
 20
104.950843
 30
0.0
 10
73.133193
 20
105.266897
 30
0.0
 10
72.337542
 20
105.266865
 30
0.0
  0
LWPOLYLINE
  5
13d
100
AcDbEntity
  8
0
 62
3
100
AcDbPolyline
 90
1
 70
1
 10
150.526240
 20
59.990110
 30
0.0
  0
SPLINE
  5
13e
100
AcDbEntity
  8
0
 62
3
100
AcDbSpline
 70
8
 71
3
 72
8
 73
4
 74
0
 40
0
 40
0
 40
0
 40
0
 40
1
 40
1
 40
1
 40
1
 10
171.003040
 20
105.266865
 30
0.0
 10
169.346259
 20
105.266821
 30
0.0
 10
168.003184
 20
103.923701
 30
0.0
 10
168.003140
 20
102.266865
 30
0.0
  0
SPLINE
  5
13f
100
AcDbEntity
  8
0
 62
3
100
AcDbSpline
 70
8
 71
3
 72
8
 73
4
 74
0
 40
0
 40
0
 40
0
 40
0
 40
1
 40
1
 40
1
 40
1
 10
168.003140
 20
102.266865
 30
0.0
 10
168.003184
 20
100.610029
 30
0.0
 10
169.346259
 20
99.266909
 30
0.0
 10
171.003040
 20
99.266865
 30
0.0
  0
SPLINE
  5
140
100
AcDbEntity
  8
0
 62
3
100
AcDbSpline
 70
8
 71
3
 72
8
 73
4
 74
0
 40
0
 40
0
 40
0
 40
0
 40
1
 40
1
 40
1
 40
1
 10
171.003040
 20
99.266865
 30
0.0
 10
171.798691
 20
99.266833
 30
0.0
 10
172.561766
 20
99.582887
 30
0.0
 10
173.124395
 20
100.145497
 30
0.0
  0
SPLINE
  5
141
100
AcDbEntity
  8
0
 62
3
100
AcDbSpline
 70
8
 71
3
 72
8
 73
4
 74
0
 40
0
 40
0
 40
0
 40
0
 40
1
 40
1
 40
1
 40
1
 10
173.124395
 20
100.145497
 30
0.0
 10
173.687025
 20
100.708108
 30
0.0
 10
174.003119
 20
101.471187
 30
0.0
 10
174.003140
 20
102.266865
 30
0.0
  0
SPLINE
  5
142
100
AcDbEntity
  8
0
 62
3
100
AcDbSpline
 70
8
 71
3
 72
8
 73
4
 74
0
 40
0
 40
0
 40
0
 40
0
 40
1
 40
1
 40
1
 40
1
 10
174.003140
 20
102.266865
 30
0.0
 10
174.003119
 20
103.062543
 30
0.0
 10
173.687025
 20
103.825622
 30
0.0
 10
173.124395
 20
104.388233
 30
0.0
  0
SPLINE
  5
143
100
AcDbEntity
  8
0
 62
3
100
AcDbSpline
 70
8
 71
3
 72
8
 73
4
 74
0
 40
0
 40
0
 40
0
 40
0
 40
1
 40
1
 40
1
 40
1
 10
173.124395
 20
104.388233
 30
0.0
 10
172.561766
 20
104.950843
 30
0.0
 10
171.798691
 20
105.266897
 30
0.0
 10
171.003040
 20
105.266865
 30
0.0
  0
LWPOLYLINE
  5
144
100
AcDbEntity
  8
0
 62
3
100
AcDbPolyline
 90
1
 70
1
 10
72.337542
 20
105.266865
 30
0.0
  0
LWPOLYLINE
  5
145
100
AcDbEntity
  8
0
 62
3
100
AcDbPolyline
 90
1
 70
1
 10
171.003040
 20
105.266865
 30
0.0
  0
LWPOLYLINE
  5
146
100
AcDbEntity
  8
0
 62
5
100
AcDbPolyline
 90
8
 70
1
 10
64.347442
 20
139.820955
 30
0.0
 10
184.003040
 20
139.820955
 30
0.0
 10
184.003040
 20
39.266860
 30
0.0
 10
64.217942
 20
39.266860
 30
0.0
 10
64.217942
 20
69.508900
 30
0.0
 10
83.152842
 20
69.508900
 30
0.0
 10
83.152842
 20
88.636475
 30
0.0
 10
64.100442
 20
88.636475
 30
0.0
  0
ENDSEC
  0
SECTION
  2
OBJECTS
  0
DICTIONARY
  5
C
330
0
100
AcDbDictionary
  3
ACAD_GROUP
350
D
  3
ACAD_MLINESTYLE
350
17
  0
DICTIONARY
  5
D
330
C
100
AcDbDictionary
  0
DICTIONARY
  5
1A
330
C
100
AcDbDictionary
  0
DICTIONARY
  5
17
330
C
100
AcDbDictionary
  3
STANDARD
350
18
  0
DICTIONARY
  5
19
330
C
100
AcDbDictionary
  0
ENDSEC
  0
EOF
