  0
SECTION
  2
HEADER
  9
$ACADVER
  1
AC1014
  9
$HANDSEED
  5
FFFF
  9
$INSUNITS
 70
     4
  9
$MEASUREMENT
 70
     1
  0
ENDSEC
  0
SECTION
  2
TABLES
  0
TABLE
  2
VPORT
  5
8
330
0
100
AcDbSymbolTable
 70
     4
  0
VPORT
  5
2E
330
8
100
AcDbSymbolTableRecord
100
AcDbViewportTableRecord
  2
*ACTIVE
 70
     0
 10
0.0
 20
0.0
 11
1.0
 21
1.0
 12
210.0
 22
148.5
 13
0.0
 23
0.0
 14
10.0
 24
10.0
 15
10.0
 25
10.0
 16
0.0
 26
0.0
 36
1.0
 17
0.0
 27
0.0
 37
0.0
 40
341.0
 41
1.24
 42
50.0
 43
0.0
 44
0.0
 50
0.0
 51
0.0
 71
     0
 72
   100
 73
     1
 74
     3
 75
     0
 76
     0
 77
     0
 78
     0
  0
ENDTAB
  0
TABLE
  2
LTYPE
  5
5
330
0
100
AcDbSymbolTable
 70
     1
  0
LTYPE
  5
14
330
5
100
AcDbSymbolTableRecord
100
AcDbLinetypeTableRecord
  2
BYBLOCK
 70
     0
  3

 72
    65
 73
     0
 40
0.0
  0
LTYPE
  5
15
330
5
100
AcDbSymbolTableRecord
100
AcDbLinetypeTableRecord
  2
BYLAYER
 70
     0
  3

 72
    65
 73
     0
 40
0.0
  0
LTYPE
  5
16
330
5
100
AcDbSymbolTableRecord
100
AcDbLinetypeTableRecord
  2
CONTINUOUS
 70
     0
  3
Solid line
 72
    65
 73
     0
 40
0.0
  0
ENDTAB
  0
TABLE
  2
LAYER
  5
2
100
AcDbSymbolTable
 70
1
  0
LAYER
  5
50
100
AcDbSymbolTableRecord
100
AcDbLayerTableRecord
  2
0
 70
0
  6
CONTINUOUS
  0
ENDTAB
  0
TABLE
  2
STYLE
  5
3
330
0
100
AcDbSymbolTable
 70
     1
  0
STYLE
  5
11
330
3
100
AcDbSymbolTableRecord
100
AcDbTextStyleTableRecord
  2
STANDARD
 70
     0
 40
0.0
 41
1.0
 50
0.0
 71
     0
 42
2.5
  3
txt
  4

  0
ENDTAB
  0
TABLE
  2
VIEW
  5
6
330
0
100
AcDbSymbolTable
 70
     0
  0
ENDTAB
  0
TABLE
  2
UCS
  5
7
330
0
100
AcDbSymbolTable
 70
     0
  0
ENDTAB
  0
TABLE
  2
APPID
  5
9
330
0
100
AcDbSymbolTable
 70
     2
  0
APPID
  5
12
330
9
100
AcDbSymbolTableRecord
100
AcDbRegAppTableRecord
  2
ACAD
 70
     0
  0
ENDTAB
  0
TABLE
  2
DIMSTYLE
  5
A
330
0
100
AcDbSymbolTable
 70
     1
  0
DIMSTYLE
105
27
330
A
100
AcDbSymbolTableRecord
100
AcDbDimStyleTableRecord
  2
ISO-25
 70
     0
  3

  4

  5

  6

  7

 40
1.0
 41
2.5
 42
0.625
 43
3.75
 44
1.25
 45
0.0
 46
0.0
 47
0.0
 48
0.0
140
2.5
141
2.5
142
0.0
143
0.03937007874016
144
1.0
145
0.0
146
1.0
147
0.625
 71
     0
 72
     0
 73
     0
 74
     0
 75
     0
 76
     0
 77
     1
 78
     8
170
     0
171
     3
172
     1
173
     0
174
     0
175
     0
176
     0
177
     0
178
     0
270
     2
271
     2
272
     2
273
     2
274
     3
340
11
275
     0
280
     0
281
     0
282
     0
283
     0
284
     8
285
     0
286
     0
287
     3
288
     0
  0
ENDTAB
  0
TABLE
  2
BLOCK_RECORD
  5
1
330
0
100
AcDbSymbolTable
 70
     1
  0
BLOCK_RECORD
  5
1F
330
1
100
AcDbSymbolTableRecord
100
AcDbBlockTableRecord
  2
*MODEL_SPACE
  0
BLOCK_RECORD
  5
1B
330
1
100
AcDbSymbolTableRecord
100
AcDbBlockTableRecord
  2
*PAPER_SPACE
  0
ENDTAB
  0
ENDSEC
  0
SECTION
  2
BLOCKS
  0
BLOCK
  5
20
330
1F
100
AcDbEntity
  8
0
100
AcDbBlockBegin
  2
*MODEL_SPACE
 70
     0
 10
0.0
 20
0.0
 30
0.0
  3
*MODEL_SPACE
  1

  0
ENDBLK
  5
21
330
1F
100
AcDbEntity
  8
0
100
AcDbBlockEnd
  0
BLOCK
  5
1C
330
1B
100
AcDbEntity
 67
     1
  8
0
100
AcDbBlockBegin
  2
*PAPER_SPACE
  1

  0
ENDBLK
  5
1D
330
1B
100
AcDbEntity
 67
     1
  8
0
100
AcDbBlockEnd
  0
ENDSEC
  0
SECTION
  2
ENTITIES
  0
LINE
  5
100
100
AcDbEntity
  8
0
 62
5
100
AcDbLine
 10
21.231361
 20
293.909176
 30
0.0
 11
181.107311
 21
293.909176
 31
0.0
  0
LINE
  5
101
100
AcDbEntity
  8
0
 62
5
100
AcDbLine
 10
181.107311
 20
293.909176
 30
0.0
 11
181.107311
 21
44.033246
 31
0.0
  0
LINE
  5
102
100
AcDbEntity
  8
0
 62
5
100
AcDbLine
 10
181.107311
 20
44.033246
 30
0.0
 11
21.231361
 21
44.033246
 31
0.0
  0
LINE
  5
103
100
AcDbEntity
  8
0
 62
5
100
AcDbLine
 10
21.231361
 20
44.033246
 30
0.0
 11
21.231361
 21
293.909176
 31
0.0
  0
SPLINE
  5
104
100
AcDbEntity
  8
0
 62
3
100
AcDbSpline
 70
8
 71
3
 72
8
 73
4
 74
0
 40
0
 40
0
 40
0
 40
0
 40
1
 40
1
 40
1
 40
1
 10
86.169334
 20
52.687977
 30
0.0
 10
84.965975
 20
52.687977
 30
0.0
 10
83.881107
 20
51.963091
 30
0.0
 10
83.420602
 20
50.851332
 30
0.0
  0
SPLINE
  5
105
100
AcDbEntity
  8
0
 62
3
100
AcDbSpline
 70
8
 71
3
 72
8
 73
4
 74
0
 40
0
 40
0
 40
0
 40
0
 40
1
 40
1
 40
1
 40
1
 10
83.420602
 20
50.851332
 30
0.0
 10
82.960096
 20
49.739574
 30
0.0
 10
83.214642
 20
48.459884
 30
0.0
 10
84.065545
 20
47.608981
 30
0.0
  0
SPLINE
  5
106
100
AcDbEntity
  8
0
 62
3
100
AcDbSpline
 70
8
 71
3
 72
8
 73
4
 74
0
 40
0
 40
0
 40
0
 40
0
 40
1
 40
1
 40
1
 40
1
 10
84.065545
 20
47.608981
 30
0.0
 10
84.916448
 20
46.758078
 30
0.0
 10
86.196138
 20
46.503532
 30
0.0
 10
87.307896
 20
46.964038
 30
0.0
  0
SPLINE
  5
107
100
AcDbEntity
  8
0
 62
3
100
AcDbSpline
 70
8
 71
3
 72
8
 73
4
 74
0
 40
0
 40
0
 40
0
 40
0
 40
1
 40
1
 40
1
 40
1
 10
87.307896
 20
46.964038
 30
0.0
 10
88.419655
 20
47.424543
 30
0.0
 10
89.144541
 20
48.509411
 30
0.0
 10
89.144541
 20
49.712770
 30
0.0
  0
SPLINE
  5
108
100
AcDbEntity
  8
0
 62
3
100
AcDbSpline
 70
8
 71
3
 72
8
 73
4
 74
0
 40
0
 40
0
 40
0
 40
0
 40
1
 40
1
 40
1
 40
1
 10
89.144541
 20
49.712770
 30
0.0
 10
89.144541
 20
50.501844
 30
0.0
 10
88.831082
 20
51.258599
 30
0.0
 10
88.273123
 20
51.816559
 30
0.0
  0
SPLINE
  5
109
100
AcDbEntity
  8
0
 62
3
100
AcDbSpline
 70
8
 71
3
 72
8
 73
4
 74
0
 40
0
 40
0
 40
0
 40
0
 40
1
 40
1
 40
1
 40
1
 10
88.273123
 20
51.816559
 30
0.0
 10
87.715163
 20
52.374518
 30
0.0
 10
86.958408
 20
52.687977
 30
0.0
 10
86.169334
 20
52.687977
 30
0.0
  0
LINE
  5
10a
100
AcDbEntity
  8
0
 62
3
100
AcDbLine
 10
86.169334
 20
52.687977
 30
0.0
 11
86.169334
 21
52.687977
 31
0.0
  0
SPLINE
  5
10b
100
AcDbEntity
  8
0
 62
3
100
AcDbSpline
 70
8
 71
3
 72
8
 73
4
 74
0
 40
0
 40
0
 40
0
 40
0
 40
1
 40
1
 40
1
 40
1
 10
101.169330
 20
77.605332
 30
0.0
 10
95.954775
 20
77.605332
 30
0.0
 10
91.253679
 20
74.464160
 30
0.0
 10
89.258156
 20
69.646540
 30
0.0
  0
SPLINE
  5
10c
100
AcDbEntity
  8
0
 62
3
100
AcDbSpline
 70
8
 71
3
 72
8
 73
4
 74
0
 40
0
 40
0
 40
0
 40
0
 40
1
 40
1
 40
1
 40
1
 10
89.258156
 20
69.646540
 30
0.0
 10
87.262632
 20
64.828920
 30
0.0
 10
88.365665
 20
59.283599
 30
0.0
 10
92.052912
 20
55.596352
 30
0.0
  0
SPLINE
  5
10d
100
AcDbEntity
  8
0
 62
3
100
AcDbSpline
 70
8
 71
3
 72
8
 73
4
 74
0
 40
0
 40
0
 40
0
 40
0
 40
1
 40
1
 40
1
 40
1
 10
92.052912
 20
55.596352
 30
0.0
 10
95.740159
 20
51.909105
 30
0.0
 10
101.285480
 20
50.806072
 30
0.0
 10
106.103100
 20
52.801596
 30
0.0
  0
SPLINE
  5
10e
100
AcDbEntity
  8
0
 62
3
100
AcDbSpline
 70
8
 71
3
 72
8
 73
4
 74
0
 40
0
 40
0
 40
0
 40
0
 40
1
 40
1
 40
1
 40
1
 10
106.103100
 20
52.801596
 30
0.0
 10
110.920720
 20
54.797119
 30
0.0
 10
114.061892
 20
59.498215
 30
0.0
 10
114.061892
 20
64.712770
 30
0.0
  0
SPLINE
  5
10f
100
AcDbEntity
  8
0
 62
3
100
AcDbSpline
 70
8
 71
3
 72
8
 73
4
 74
0
 40
0
 40
0
 40
0
 40
0
 40
1
 40
1
 40
1
 40
1
 10
114.061892
 20
64.712770
 30
0.0
 10
114.061892
 20
71.833135
 30
0.0
 10
108.289695
 20
77.605332
 30
0.0
 10
101.169330
 20
77.605332
 30
0.0
  0
LINE
  5
110
100
AcDbEntity
  8
0
 62
3
100
AcDbLine
 10
101.169330
 20
77.605332
 30
0.0
 11
101.169330
 21
77.605332
 31
0.0
  0
SPLINE
  5
111
100
AcDbEntity
  8
0
 62
3
100
AcDbSpline
 70
8
 71
3
 72
8
 73
4
 74
0
 40
0
 40
0
 40
0
 40
0
 40
1
 40
1
 40
1
 40
1
 10
116.169330
 20
52.687977
 30
0.0
 10
114.526169
 20
52.687977
 30
0.0
 10
113.194123
 20
51.355931
 30
0.0
 10
113.194123
 20
49.712770
 30
0.0
  0
SPLINE
  5
112
100
AcDbEntity
  8
0
 62
3
100
AcDbSpline
 70
8
 71
3
 72
8
 73
4
 74
0
 40
0
 40
0
 40
0
 40
0
 40
1
 40
1
 40
1
 40
1
 10
113.194123
 20
49.712770
 30
0.0
 10
113.194123
 20
48.069609
 30
0.0
 10
114.526169
 20
46.737563
 30
0.0
 10
116.169330
 20
46.737563
 30
0.0
  0
SPLINE
  5
113
100
AcDbEntity
  8
0
 62
3
100
AcDbSpline
 70
8
 71
3
 72
8
 73
4
 74
0
 40
0
 40
0
 40
0
 40
0
 40
1
 40
1
 40
1
 40
1
 10
116.169330
 20
46.737563
 30
0.0
 10
117.812491
 20
46.737563
 30
0.0
 10
119.144537
 20
48.069609
 30
0.0
 10
119.144537
 20
49.712770
 30
0.0
  0
SPLINE
  5
114
100
AcDbEntity
  8
0
 62
3
100
AcDbSpline
 70
8
 71
3
 72
8
 73
4
 74
0
 40
0
 40
0
 40
0
 40
0
 40
1
 40
1
 40
1
 40
1
 10
119.144537
 20
49.712770
 30
0.0
 10
119.144537
 20
50.501844
 30
0.0
 10
118.831078
 20
51.258599
 30
0.0
 10
118.273119
 20
51.816559
 30
0.0
  0
SPLINE
  5
115
100
AcDbEntity
  8
0
 62
3
100
AcDbSpline
 70
8
 71
3
 72
8
 73
4
 74
0
 40
0
 40
0
 40
0
 40
0
 40
1
 40
1
 40
1
 40
1
 10
118.273119
 20
51.816559
 30
0.0
 10
117.715159
 20
52.374518
 30
0.0
 10
116.958404
 20
52.687977
 30
0.0
 10
116.169330
 20
52.687977
 30
0.0
  0
LINE
  5
116
100
AcDbEntity
  8
0
 62
3
100
AcDbLine
 10
116.169330
 20
52.687977
 30
0.0
 11
116.169330
 21
52.687977
 31
0.0
  0
SPLINE
  5
117
100
AcDbEntity
  8
0
 62
3
100
AcDbSpline
 70
8
 71
3
 72
8
 73
4
 74
0
 40
0
 40
0
 40
0
 40
0
 40
1
 40
1
 40
1
 40
1
 10
86.169334
 20
82.687987
 30
0.0
 10
84.965975
 20
82.687987
 30
0.0
 10
83.881107
 20
81.963101
 30
0.0
 10
83.420602
 20
80.851342
 30
0.0
  0
SPLINE
  5
118
100
AcDbEntity
  8
0
 62
3
100
AcDbSpline
 70
8
 71
3
 72
8
 73
4
 74
0
 40
0
 40
0
 40
0
 40
0
 40
1
 40
1
 40
1
 40
1
 10
83.420602
 20
80.851342
 30
0.0
 10
82.960096
 20
79.739584
 30
0.0
 10
83.214642
 20
78.459894
 30
0.0
 10
84.065545
 20
77.608991
 30
0.0
  0
SPLINE
  5
119
100
AcDbEntity
  8
0
 62
3
100
AcDbSpline
 70
8
 71
3
 72
8
 73
4
 74
0
 40
0
 40
0
 40
0
 40
0
 40
1
 40
1
 40
1
 40
1
 10
84.065545
 20
77.608991
 30
0.0
 10
84.916448
 20
76.758088
 30
0.0
 10
86.196138
 20
76.503542
 30
0.0
 10
87.307896
 20
76.964048
 30
0.0
  0
SPLINE
  5
11a
100
AcDbEntity
  8
0
 62
3
100
AcDbSpline
 70
8
 71
3
 72
8
 73
4
 74
0
 40
0
 40
0
 40
0
 40
0
 40
1
 40
1
 40
1
 40
1
 10
87.307896
 20
76.964048
 30
0.0
 10
88.419655
 20
77.424553
 30
0.0
 10
89.144541
 20
78.509421
 30
0.0
 10
89.144541
 20
79.712780
 30
0.0
  0
SPLINE
  5
11b
100
AcDbEntity
  8
0
 62
3
100
AcDbSpline
 70
8
 71
3
 72
8
 73
4
 74
0
 40
0
 40
0
 40
0
 40
0
 40
1
 40
1
 40
1
 40
1
 10
89.144541
 20
79.712780
 30
0.0
 10
89.144541
 20
80.501854
 30
0.0
 10
88.831082
 20
81.258609
 30
0.0
 10
88.273123
 20
81.816569
 30
0.0
  0
SPLINE
  5
11c
100
AcDbEntity
  8
0
 62
3
100
AcDbSpline
 70
8
 71
3
 72
8
 73
4
 74
0
 40
0
 40
0
 40
0
 40
0
 40
1
 40
1
 40
1
 40
1
 10
88.273123
 20
81.816569
 30
0.0
 10
87.715163
 20
82.374528
 30
0.0
 10
86.958408
 20
82.687987
 30
0.0
 10
86.169334
 20
82.687987
 30
0.0
  0
LINE
  5
11d
100
AcDbEntity
  8
0
 62
3
100
AcDbLine
 10
86.169334
 20
82.687987
 30
0.0
 11
86.169334
 21
82.687987
 31
0.0
  0
SPLINE
  5
11e
100
AcDbEntity
  8
0
 62
3
100
AcDbSpline
 70
8
 71
3
 72
8
 73
4
 74
0
 40
0
 40
0
 40
0
 40
0
 40
1
 40
1
 40
1
 40
1
 10
116.169330
 20
82.687987
 30
0.0
 10
114.526169
 20
82.687987
 30
0.0
 10
113.194123
 20
81.355941
 30
0.0
 10
113.194123
 20
79.712780
 30
0.0
  0
SPLINE
  5
11f
100
AcDbEntity
  8
0
 62
3
100
AcDbSpline
 70
8
 71
3
 72
8
 73
4
 74
0
 40
0
 40
0
 40
0
 40
0
 40
1
 40
1
 40
1
 40
1
 10
113.194123
 20
79.712780
 30
0.0
 10
113.194123
 20
78.069619
 30
0.0
 10
114.526169
 20
76.737573
 30
0.0
 10
116.169330
 20
76.737573
 30
0.0
  0
SPLINE
  5
120
100
AcDbEntity
  8
0
 62
3
100
AcDbSpline
 70
8
 71
3
 72
8
 73
4
 74
0
 40
0
 40
0
 40
0
 40
0
 40
1
 40
1
 40
1
 40
1
 10
116.169330
 20
76.737573
 30
0.0
 10
117.812491
 20
76.737573
 30
0.0
 10
119.144537
 20
78.069619
 30
0.0
 10
119.144537
 20
79.712780
 30
0.0
  0
SPLINE
  5
121
100
AcDbEntity
  8
0
 62
3
100
AcDbSpline
 70
8
 71
3
 72
8
 73
4
 74
0
 40
0
 40
0
 40
0
 40
0
 40
1
 40
1
 40
1
 40
1
 10
119.144537
 20
79.712780
 30
0.0
 10
119.144537
 20
80.501854
 30
0.0
 10
118.831078
 20
81.258609
 30
0.0
 10
118.273119
 20
81.816569
 30
0.0
  0
SPLINE
  5
122
100
AcDbEntity
  8
0
 62
3
100
AcDbSpline
 70
8
 71
3
 72
8
 73
4
 74
0
 40
0
 40
0
 40
0
 40
0
 40
1
 40
1
 40
1
 40
1
 10
118.273119
 20
81.816569
 30
0.0
 10
117.715159
 20
82.374528
 30
0.0
 10
116.958404
 20
82.687987
 30
0.0
 10
116.169330
 20
82.687987
 30
0.0
  0
LINE
  5
123
100
AcDbEntity
  8
0
 62
3
100
AcDbLine
 10
116.169330
 20
82.687987
 30
0.0
 11
116.169330
 21
82.687987
 31
0.0
  0
ENDSEC
  0
SECTION
  2
OBJECTS
  0
DICTIONARY
  5
C
330
0
100
AcDbDictionary
  3
ACAD_GROUP
350
D
  3
ACAD_MLINESTYLE
350
17
  0
DICTIONARY
  5
D
330
C
100
AcDbDictionary
  0
DICTIONARY
  5
1A
330
C
100
AcDbDictionary
  0
DICTIONARY
  5
17
330
C
100
AcDbDictionary
  3
STANDARD
350
18
  0
DICTIONARY
  5
19
330
C
100
AcDbDictionary
  0
ENDSEC
  0
EOF
